# xmcd
#
# Track frame offsets:
#	150
#	17156
#	32326
#	48438
#	68458
#	84924
#	99684
#	120333
#	136354
#	162007
#	182882
#	198192
#	216319
#	234586
#	245596
#	263564
#	280769
#	296252
#	314247
#
# Disc length: 4410 seconds
#
# Revision: 0
# Processed by: cddbd v1.5.2PL0 Copyright (c) Steve Scherf et al.
# Submitted via: EasyCDDAExtractor 16.0.9.1
#
DISCID=05113813
DTITLE=Nu Urban Traxx Volume 221 US
DYEAR=2016
DGENRE=blues
TTITLE0=Kid Ink ft. Fetty Wap - Promise
TTITLE1=Fetty Wap ft. Monty - Jugg
TTITLE2=Young Thug - Best Friend
TTITLE3=A$AP Ferg ft. Future - New Level
TTITLE4=Migos - Look At My Dab
TTITLE5=Bryson Tiller - Exchange
TTITLE6=French Montana ft. Chris Brown and Migos - Moses
TTITLE7=Dej Loaf ft. Future - Hey There
TTITLE8=Babyface - Exceptional
TTITLE9=Puff Daddy and The Family ft. Ty Dolla $ign and Gizzle - You Could Be My
TTITLE9=Lover
TTITLE10=Melanie Fiona - I Tried
TTITLE11=Kevin Gates - 2 Phones
TTITLE12=Mack Wilds - Love in the 90z
TTITLE13=Alabama Shakes - Sound and Color
TTITLE14=Mali Music ft. Jhene Aiko - Contradiction
TTITLE15=Kranium ft. Ty Dolla $ign - Nobody Has to Know
TTITLE16=Big Will - Dabb On 'Em
TTITLE17=Demetria McKinney ft. Kandi B - Unnecessary Trouble
TTITLE18=B Smyth ft. Young Thug - Creep
EXTD=
EXTT0=
EXTT1=
EXTT2=
EXTT3=
EXTT4=
EXTT5=
EXTT6=
EXTT7=
EXTT8=
EXTT9=
EXTT10=
EXTT11=
EXTT12=
EXTT13=
EXTT14=
EXTT15=
EXTT16=
EXTT17=
EXTT18=
PLAYORDER=
